<svg width="70" height="59" viewBox="0 0 70 59" fill="none" xmlns="http://www.w3.org/2000/svg">
<path d="M49.1697 48.8817C48.8809 48.6135 48.5849 48.35 48.2829 48.0913C49.4514 46.6632 50.3943 45.0444 51.0567 43.2897C51.7393 42.7151 52.1583 41.9617 52.1583 41.1356C52.1583 40.7685 52.0723 40.4168 51.922 40.0878C52.0771 39.1616 52.1618 38.2127 52.1618 37.2435C52.1618 28.6904 45.8673 21.5809 37.6654 20.2923C38.8232 19.6403 39.9164 18.4148 39.9164 16.1082C39.9164 14.7695 39.5309 13.8969 38.7706 13.5166C37.2513 12.7596 34.9574 14.4226 34.7008 14.6169C34.4907 14.7742 34.4477 15.0722 34.6065 15.2821C34.764 15.493 35.0624 15.5348 35.2724 15.3774C35.8024 14.9816 37.5031 13.9493 38.3446 14.3689C38.8554 14.6252 38.9628 15.4561 38.9628 16.1082C38.9628 20.0181 35.1471 20.0825 34.9848 20.0825C25.5155 20.0825 17.8126 27.7809 17.8126 37.2435C17.8126 38.2127 17.8973 39.1616 18.0524 40.0878C17.9021 40.4168 17.8149 40.7697 17.8149 41.1356C17.8149 41.9617 18.2339 42.7151 18.9165 43.2897C19.5801 45.0444 20.5218 46.6632 21.6903 48.0913C21.3883 48.3488 21.0923 48.6135 20.8035 48.8817C11.5168 52.0883 9.07484 57.8651 8.93998 58.2013C8.8433 58.4445 8.96146 58.721 9.20494 58.8188C9.44961 58.9165 9.7265 58.7997 9.82437 58.5553C9.82795 58.5482 9.85659 58.4826 9.90792 58.3777C10.3424 57.498 12.6279 53.4688 19.0884 50.6269C17.0129 52.9669 15.5855 55.5883 15.5855 58.3777C15.5855 58.64 15.7991 58.8533 16.0617 58.8533C16.3242 58.8533 16.5379 58.6411 16.5379 58.3777C16.5379 55.2664 18.5609 52.3232 21.2725 49.7733C21.565 49.4968 21.8681 49.2262 22.1748 48.9604C22.225 48.9163 22.2763 48.8721 22.3288 48.828C22.3503 48.8519 22.373 48.8745 22.3956 48.8984C22.521 49.0343 22.6487 49.1678 22.7776 49.3001C25.8938 52.4495 30.2143 54.4045 34.986 54.4045C39.7577 54.4045 44.0782 52.4495 47.1945 49.3001C47.3245 49.169 47.4511 49.0343 47.5788 48.8984C47.6002 48.8745 47.6229 48.8519 47.6444 48.828C47.6969 48.8721 47.747 48.9163 47.7984 48.9604C48.1063 49.2274 48.4083 49.4968 48.7007 49.7733C51.4123 52.3232 53.4353 55.2664 53.4353 58.3777C53.4353 58.64 53.6478 58.8533 53.9115 58.8533C54.1741 58.8533 54.3877 58.6411 54.3877 58.3777C54.3877 55.5883 52.9603 52.9669 50.8848 50.6269C57.3477 53.47 59.6309 57.5003 60.0653 58.3777C60.1166 58.4826 60.1453 58.5458 60.1476 58.5541C60.2216 58.7401 60.4007 58.8533 60.5904 58.8533C60.6501 58.8533 60.7098 58.8426 60.7671 58.82C61.0117 58.7222 61.1311 58.4456 61.0332 58.2013C60.8984 57.8651 58.4576 52.0883 49.1697 48.8817ZM51.1975 41.2513C51.182 41.4599 51.1271 41.6613 51.0352 41.8521C50.8741 42.1846 50.6031 42.4839 50.251 42.7306C49.628 43.1681 48.7544 43.4411 47.7864 43.4411C45.9007 43.4411 44.367 42.4076 44.367 41.1368C44.367 39.8661 45.9007 38.8325 47.7864 38.8325C49.1948 38.8325 50.4062 39.4095 50.929 40.2285C51.1068 40.5086 51.2058 40.815 51.2058 41.1368C51.2058 41.175 51.1999 41.2143 51.1975 41.2513ZM18.9392 41.8532C18.8473 41.6625 18.7936 41.4611 18.7769 41.2513C18.7745 41.2131 18.7686 41.175 18.7686 41.1368C18.7686 40.815 18.8688 40.5086 19.0454 40.2285C19.5694 39.4083 20.7808 38.8325 22.1892 38.8325C24.0749 38.8325 25.6086 39.8673 25.6086 41.1368C25.6086 42.4076 24.0737 43.4411 22.1892 43.4411C21.2212 43.4411 20.3464 43.1681 19.7246 42.7306C19.3725 42.4839 19.1015 42.1846 18.9392 41.8532ZM47.5537 47.481C47.4499 47.6086 47.3413 47.7325 47.235 47.8553C47.1348 47.9709 47.0333 48.0878 46.9283 48.201C46.9235 48.207 46.9176 48.2129 46.9116 48.2189C46.791 48.35 46.6681 48.4788 46.5428 48.6051C46.4079 48.7422 46.2695 48.8757 46.1298 49.008C43.2212 51.7593 39.2994 53.4533 34.9872 53.4533C30.675 53.4533 26.7532 51.7593 23.8446 49.008C23.7049 48.8757 23.5665 48.7422 23.4316 48.6051C23.3063 48.4788 23.1834 48.35 23.064 48.2189C23.058 48.2129 23.0521 48.207 23.0461 48.201C22.9423 48.0878 22.842 47.9709 22.7406 47.8553C22.6331 47.7325 22.5245 47.6086 22.4219 47.481C21.5709 46.4403 20.8488 45.2924 20.276 44.0621C20.8548 44.2731 21.5029 44.3947 22.1892 44.3947C24.5989 44.3947 26.561 42.9333 26.561 41.138C26.561 39.3428 24.5989 37.8801 22.1892 37.8801C20.8596 37.8801 19.6685 38.3271 18.8652 39.0269C18.802 38.4415 18.765 37.8479 18.765 37.2447C18.765 28.3078 26.0418 21.0362 34.9872 21.0362C43.9326 21.0362 51.2094 28.3078 51.2094 37.2447C51.2094 37.8479 51.1736 38.4415 51.1092 39.0269C50.3059 38.3271 49.116 37.8801 47.7852 37.8801C45.3755 37.8801 43.4134 39.3416 43.4134 41.138C43.4134 42.9345 45.3755 44.3947 47.7852 44.3947C48.4715 44.3947 49.1208 44.2731 49.6984 44.0621C49.1256 45.2912 48.4047 46.4391 47.5537 47.481Z" fill="black"/>
<mask id="mask0_794_1970" style="mask-type:luminance" maskUnits="userSpaceOnUse" x="40" y="0" width="30" height="30">
<path d="M40.0703 0H70V29.9066H40.0703V0Z" fill="white"/>
</mask>
<g mask="url(#mask0_794_1970)">
<path d="M69.2763 23.3736L67.2247 20.6938L64.9964 17.6576C64.9821 17.6385 64.9665 17.6194 64.9486 17.6027L61.2666 13.9228L60.4885 11.5935C60.4658 11.5232 60.4264 11.46 60.3739 11.4088L53.2594 4.29927L53.7296 4.03344C54.4887 3.60787 55.416 3.68416 56.1119 4.23967L59.1959 6.48314C59.2806 6.54393 59.3785 6.57373 59.4764 6.57373C59.6232 6.57373 59.7676 6.50579 59.8619 6.37823C60.0158 6.16485 59.9693 5.86803 59.7569 5.71306L56.6883 3.4827C55.7049 2.69594 54.361 2.58746 53.2629 3.20376L52.5588 3.59952L51.8415 2.88309C51.752 2.79369 51.6314 2.74362 51.5049 2.74362H50.8461C50.8234 2.69713 50.7972 2.65064 50.7602 2.61488L48.9938 0.850615C48.4841 0.34041 47.805 0.059082 47.0829 0.059082C46.3609 0.059082 45.683 0.34041 45.1721 0.850615C45.1184 0.904259 45.0778 0.969822 45.054 1.04135L44.6279 2.37765L43.3401 2.76388C43.2004 2.80561 43.0883 2.90932 43.0345 3.04402L42.4247 4.58298L41.2288 4.88696C41.1452 4.90842 41.07 4.95014 41.0092 5.01093C39.9553 6.06472 39.9553 7.77772 41.0092 8.83032L42.7756 10.5946C42.8126 10.6327 42.8579 10.6566 42.9033 10.6792V11.3384C42.9033 11.4636 42.9546 11.584 43.0441 11.6746L51.5753 20.2003C51.6278 20.2527 51.6911 20.2921 51.7615 20.3159L54.0936 21.0919L57.7756 24.7718C57.7935 24.7897 57.8114 24.804 57.8317 24.8195L60.862 27.0404L63.5522 29.0943C64.1466 29.5497 64.8567 29.7905 65.5657 29.7905C65.7662 29.7905 65.9667 29.7726 66.1636 29.7332C67.1029 29.5461 67.9241 29.1062 68.6056 28.4255C69.2871 27.7437 69.7275 26.9223 69.9148 25.983C70.0915 25.0889 69.8599 24.1377 69.2763 23.3736ZM42.988 9.46212L41.6847 8.15799C41.0306 7.50593 41.0032 6.46168 41.5999 5.77505L42.8973 5.44604C43.0453 5.40908 43.167 5.30299 43.2231 5.15994L43.8354 3.61025L45.1423 3.21687C45.2927 3.17157 45.4108 3.05594 45.4586 2.90574L45.9276 1.44903C46.5948 0.860152 47.6881 0.889953 48.323 1.52413L49.6275 2.82706C49.6001 2.84614 49.569 2.85925 49.544 2.88309L43.0441 9.37748C43.019 9.40251 43.0059 9.43351 42.988 9.46212ZM61.9434 26.0402C61.8562 26.0629 61.7679 26.0843 61.6796 26.101C61.6068 26.1153 61.5328 26.1272 61.4588 26.138C61.4003 26.1475 61.3418 26.1606 61.2834 26.1678L61.2774 26.1642L58.4237 24.0721L54.688 20.3385C54.6355 20.2861 54.571 20.2479 54.5018 20.2229L52.1709 19.4469L43.8581 11.1394V9.91033L50.0799 3.6937H51.3104L59.622 11.9988L60.4002 14.3293C60.4228 14.3985 60.4622 14.4628 60.5147 14.5153L64.2516 18.2477L66.345 21.0991L66.3498 21.1062C66.3415 21.1646 66.3283 21.2219 66.3188 21.2803C66.308 21.3542 66.2973 21.4293 66.2818 21.502C66.2639 21.5914 66.2424 21.6784 66.2221 21.7654C66.2042 21.837 66.1875 21.9085 66.166 21.98C66.141 22.0682 66.1123 22.1541 66.0825 22.2399C66.0598 22.309 66.0371 22.3794 66.0109 22.4473C65.9786 22.5331 65.9404 22.6166 65.9046 22.7012C65.8748 22.7668 65.8485 22.8335 65.8175 22.8991C65.7769 22.9826 65.7304 23.066 65.6862 23.1494C65.6516 23.2102 65.6206 23.2722 65.586 23.333C65.5358 23.4177 65.4809 23.4987 65.426 23.581C65.3914 23.6358 65.3568 23.693 65.3186 23.7467C65.2554 23.8361 65.1873 23.9207 65.1181 24.0077C65.0847 24.0506 65.0525 24.0959 65.0179 24.1377C64.9116 24.2628 64.7994 24.3856 64.6825 24.5024C64.5643 24.6193 64.4426 24.7313 64.3173 24.8362C64.2743 24.872 64.2301 24.9042 64.1872 24.9375C64.1012 25.0067 64.0153 25.0746 63.927 25.1378C63.8733 25.176 63.8172 25.2093 63.7623 25.2439C63.6799 25.2987 63.5976 25.3548 63.514 25.4036C63.4532 25.4382 63.3899 25.4704 63.329 25.5038C63.2467 25.5479 63.1655 25.5932 63.0796 25.6349C63.0151 25.6659 62.9483 25.6933 62.8827 25.7207C62.7979 25.7577 62.7144 25.7946 62.6284 25.828C62.5592 25.8542 62.49 25.8757 62.4208 25.8995C62.3348 25.9282 62.2489 25.9568 62.1618 25.983C62.0878 26.0056 62.015 26.0235 61.9434 26.0402ZM67.9324 27.752C67.387 28.2968 66.7282 28.6496 65.9774 28.7987C65.3485 28.9226 64.6765 28.7557 64.1299 28.3373L62.2978 26.9378C62.3074 26.9343 62.3169 26.9307 62.3265 26.9295C62.3647 26.9188 62.4005 26.9056 62.4387 26.8949C62.5723 26.8556 62.7036 26.8151 62.8337 26.7674C62.8874 26.7495 62.9411 26.728 62.9949 26.7078C63.1142 26.6613 63.2336 26.6112 63.3505 26.5576C63.3959 26.5373 63.4424 26.5182 63.4866 26.4968C63.6453 26.4205 63.8005 26.3394 63.9532 26.2524C63.9735 26.2405 63.9926 26.2262 64.0141 26.2154C64.1454 26.138 64.2743 26.0545 64.4008 25.9687C64.445 25.9365 64.4891 25.9043 64.5345 25.8733C64.6395 25.7982 64.741 25.7195 64.8412 25.6385C64.8818 25.6051 64.9236 25.5717 64.9641 25.5383C65.099 25.4227 65.2303 25.3047 65.3556 25.1783C65.4821 25.052 65.6015 24.9197 65.7161 24.785C65.7507 24.7444 65.7829 24.7027 65.8163 24.6622C65.8975 24.562 65.9762 24.4607 66.0514 24.3558C66.0849 24.3117 66.1171 24.2676 66.1469 24.2223C66.2352 24.0959 66.3176 23.966 66.3952 23.8349C66.4071 23.8146 66.4202 23.7955 66.4322 23.7753C66.5205 23.6239 66.6005 23.4677 66.6768 23.3092C66.6971 23.2651 66.7174 23.2198 66.7365 23.1757C66.7902 23.0565 66.8415 22.9373 66.8881 22.8157C66.9084 22.7632 66.9287 22.712 66.9478 22.6595C66.9943 22.5284 67.0361 22.3949 67.0755 22.2602C67.0862 22.2244 67.0982 22.1886 67.1089 22.1517C67.1113 22.1421 67.1149 22.1326 67.1184 22.1219L68.5196 23.9541C68.9374 24.5001 69.1056 25.1724 68.9803 25.7994C68.8299 26.5504 68.4779 27.2072 67.9324 27.752Z" fill="black"/>
</g>
<path d="M49.1396 10.5966C48.9535 10.7825 48.9535 11.0841 49.1396 11.2701C49.2327 11.3631 49.3545 11.4096 49.4762 11.4096C49.5979 11.4096 49.7209 11.3631 49.8128 11.2701L51.4383 9.64649C51.6245 9.46052 51.6245 9.16012 51.4383 8.97297C51.2522 8.78701 50.9514 8.78701 50.764 8.97297L49.1396 10.5966Z" fill="black"/>
<path d="M30.5379 34.3828C30.8005 34.3828 31.0141 34.1694 31.0141 33.9072C31.0141 31.8056 29.3026 30.0938 27.1985 30.0938C25.0955 30.0938 23.3828 31.8056 23.3828 33.9072C23.3828 34.1694 23.5965 34.3828 23.859 34.3828C24.1216 34.3828 24.3352 34.1694 24.3352 33.9072C24.3352 32.3301 25.6195 31.0462 27.1985 31.0462C28.7775 31.0462 30.0617 32.3301 30.0617 33.9072C30.0617 34.1694 30.2753 34.3828 30.5379 34.3828Z" fill="black"/>
<path d="M45.6465 33.906C45.6465 34.1694 45.8589 34.3816 46.1227 34.3816C46.3864 34.3816 46.6001 34.1694 46.6001 33.906C46.6001 31.8044 44.8886 30.0938 42.7844 30.0938C40.6802 30.0938 38.9688 31.8044 38.9688 33.906C38.9688 34.1694 39.1812 34.3816 39.445 34.3816C39.7075 34.3816 39.9212 34.1694 39.9212 33.906C39.9212 32.3289 41.2054 31.045 42.7844 31.045C44.3622 31.045 45.6465 32.3301 45.6465 33.906Z" fill="black"/>
<path d="M39.4447 37.8789H30.5387C30.2761 37.8789 30.0625 38.0935 30.0625 38.3557C30.0625 39.7004 30.4277 40.9413 31.0376 41.9451C31.1235 42.0857 31.213 42.2228 31.3073 42.3539C31.404 42.4874 31.5055 42.6174 31.6129 42.7402C32.4961 43.763 33.6836 44.3947 34.9917 44.3947C36.2998 44.3947 37.4861 43.763 38.3693 42.7425C38.4768 42.6186 38.5782 42.491 38.6749 42.3563C38.7692 42.2252 38.8599 42.0893 38.9446 41.9486C39.5557 40.9425 39.9209 39.7028 39.9209 38.3557C39.9209 38.0935 39.7073 37.8789 39.4447 37.8789ZM38.1008 41.5147C38.0137 41.6554 37.9194 41.7889 37.8215 41.9176C37.7201 42.0511 37.6115 42.1751 37.4993 42.2931C36.8154 43.0084 35.9429 43.4411 34.9917 43.4411C34.0405 43.4411 33.1668 43.0072 32.4818 42.2919C32.3696 42.1739 32.261 42.0476 32.1583 41.9141C32.0616 41.7865 31.9673 41.6542 31.8802 41.5135C31.4124 40.7613 31.1056 39.8411 31.0328 38.8326H38.9506C38.8778 39.8422 38.5699 40.7637 38.1008 41.5147Z" fill="black"/>
<path d="M5.8509 22.3119L9.44934 25.9072C9.54243 26.0014 9.66417 26.0467 9.78591 26.0467C9.90884 26.0467 10.0306 26.0014 10.1237 25.9072C10.3087 25.7212 10.3087 25.4208 10.1237 25.2349L6.52404 21.6384L8.99938 19.1648L12.5978 22.7613C12.6909 22.8543 12.8127 22.8996 12.9344 22.8996C13.0573 22.8996 13.1779 22.8543 13.2722 22.7613C13.4572 22.5742 13.4572 22.2738 13.2722 22.0878L9.67253 18.4913L12.1479 16.019L15.7475 19.6143C15.8406 19.7072 15.9623 19.7537 16.0841 19.7537C16.2058 19.7537 16.3287 19.7072 16.4218 19.6143C16.6068 19.4283 16.6068 19.1279 16.4218 18.9407L12.8222 15.3455L15.2964 12.8719L18.896 16.4684C18.9891 16.5614 19.1108 16.6067 19.2326 16.6067C19.3543 16.6067 19.476 16.5614 19.5703 16.4684C19.7553 16.2824 19.7553 15.9808 19.5703 15.7949L15.9707 12.1984L18.446 9.72486L22.0457 13.3213C22.1376 13.4143 22.2605 13.4608 22.3822 13.4608C22.504 13.4608 22.6257 13.4143 22.7188 13.3213C22.905 13.1342 22.905 12.835 22.7188 12.6478L19.1204 9.05253L21.5945 6.57899L25.1942 10.1755C25.2861 10.2684 25.409 10.3149 25.5307 10.3149C25.6525 10.3149 25.7742 10.2684 25.8673 10.1755C26.0535 9.98831 26.0535 9.6879 25.8673 9.50194L22.2689 5.90547L24.743 3.43312L28.3426 7.0284C28.4345 7.12257 28.5575 7.16787 28.6792 7.16787C28.801 7.16787 28.9227 7.12257 29.0158 7.0284C29.202 6.84244 29.202 6.54204 29.0158 6.35607L25.0796 2.42225L23.5053 0.851104C22.9957 0.340899 22.3166 0.0595703 21.5945 0.0595703C20.8724 0.0595703 20.1945 0.339706 19.6837 0.851104L0.790404 19.7287C-0.263468 20.7825 -0.263468 22.4955 0.790404 23.5481L2.36465 25.1204L6.29966 29.0531C6.39275 29.146 6.51449 29.1925 6.63742 29.1925C6.75916 29.1925 6.8809 29.146 6.97399 29.0531C7.16018 28.8671 7.16018 28.5655 6.97399 28.3795L3.37436 24.7831L5.8509 22.3119ZM1.46354 22.8746C0.780856 22.1927 0.780856 21.0829 1.46354 20.401L20.3557 1.52462C21.0169 0.864216 22.1698 0.863024 22.831 1.52462L24.0687 2.7608L18.1083 8.71637L11.8101 15.0081L8.66162 18.1552L5.51313 21.301L2.70241 24.1107L1.46354 22.8746Z" fill="black"/>
</svg>
